<svg xmlns="http://www.w3.org/2000/svg" width="22.07" height="16.594" viewBox="0 0 22.07 16.594">
  <g id="メールの無料アイコン素材" transform="translate(0 -63.519)">
    <path id="パス_3" data-name="パス 3" d="M448.768,175.014l-2.848-2.959,2.848-2.455Z" transform="translate(-426.698 -101.508)" fill="#F5FE69"/>
    <path id="パス_4" data-name="パス 4" d="M2.852,172.055,0,175.018V169.6Z" transform="translate(0 -101.508)" fill="#F5FE69"/>
    <path id="パス_5" data-name="パス 5" d="M22.07,259.307v2.724a1.194,1.194,0,0,1-1.193,1.193H1.193A1.194,1.194,0,0,1,0,262.031v-2.724l4.266-4.428,4.873,4.2a3,3,0,0,0,3.8,0l4.869-4.2Z" transform="translate(0 -183.111)" fill="#F5FE69"/>
    <path id="パス_6" data-name="パス 6" d="M22.07,64.709V65.9L11.663,74.868a1.015,1.015,0,0,1-1.255,0L0,65.9V64.709a1.191,1.191,0,0,1,1.193-1.19H20.877A1.191,1.191,0,0,1,22.07,64.709Z" fill="#F5FE69"/>
  </g>
</svg>
