<svg xmlns="http://www.w3.org/2000/svg" width="21.373" height="23.597" viewBox="0 0 21.373 23.597">
  <g id="ルーズリーフのノートアイコン" transform="translate(-24.122)">
    <path id="パス_616" data-name="パス 616" d="M44.613.882A3.008,3.008,0,0,0,42.483,0H28.294a3.013,3.013,0,0,0-3.012,3.013v.243h-.662a.5.5,0,0,0,0,.995h.662V7.235h-.662a.5.5,0,0,0,0,.995h.662v2.984h-.662a.5.5,0,1,0,0,.994h.662v2.985h-.662a.5.5,0,0,0,0,.994h.662v2.985h-.662a.5.5,0,0,0,0,.994h.662v.418A3.013,3.013,0,0,0,28.294,23.6H42.483A3.012,3.012,0,0,0,45.5,20.584V3.013A3.006,3.006,0,0,0,44.613.882ZM30.524,22.271h-2.23a1.687,1.687,0,0,1-1.687-1.687v-.418h1.052a.993.993,0,1,0-.013-.994H26.607V16.187h1.05a.994.994,0,1,0-.01-.994H26.607V12.208h1.049a.994.994,0,1,0-.006-.994H26.607V8.229h1.047a.994.994,0,1,0,0-.995H26.607V4.25h1.045a.994.994,0,1,0,0-.995H26.607V3.013a1.686,1.686,0,0,1,1.687-1.687h2.23V22.271ZM44.17,20.584a1.687,1.687,0,0,1-1.687,1.687H31.021V1.326H42.483A1.686,1.686,0,0,1,44.17,3.013V20.584Z" transform="translate(0)" fill="#FFE500"/>
    <rect id="長方形_48" data-name="長方形 48" width="8.799" height="0.497" transform="translate(33.051 5.213)" fill="#FFE500"/>
    <rect id="長方形_49" data-name="長方形 49" width="8.799" height="0.497" transform="translate(33.051 8.402)" fill="#FFE500"/>
    <rect id="長方形_50" data-name="長方形 50" width="8.799" height="0.497" transform="translate(33.051 11.592)" fill="#FFE500"/>
    <rect id="長方形_51" data-name="長方形 51" width="8.799" height="0.497" transform="translate(33.051 14.782)" fill="#FFE500"/>
    <rect id="長方形_52" data-name="長方形 52" width="8.799" height="0.497" transform="translate(33.051 17.971)" fill="#FFE500"/>
  </g>
</svg>
