<svg id="電話発信中のフリーアイコン" xmlns="http://www.w3.org/2000/svg" width="46.718" height="46.716" viewBox="0 0 46.718 46.716">
  <path id="パス_620" data-name="パス 620" d="M28.852,151.211a1.512,1.512,0,0,0-2.016-.107l-2.841,2.291a1.51,1.51,0,0,1-1.922-.021,39.643,39.643,0,0,1-9.392-9.392,1.51,1.51,0,0,1-.021-1.921l2.29-2.841a1.51,1.51,0,0,0-.107-2.016l-5.44-5.44a1.514,1.514,0,0,0-2.041-.089L.538,137.405a1.508,1.508,0,0,0-.359,1.87s.917,1.873,1.77,3.306a67.675,67.675,0,0,0,21.525,21.525c1.433.851,3.305,1.77,3.305,1.77a1.511,1.511,0,0,0,1.87-.362l5.732-6.823a1.513,1.513,0,0,0-.089-2.04Z" transform="translate(0.001 -119.339)" fill="#fff"/>
  <path id="パス_621" data-name="パス 621" d="M250.691,166.585l2.265-.359A12.013,12.013,0,0,0,243,156.267l-.36,2.264a9.723,9.723,0,0,1,8.054,8.054Z" transform="translate(-220.497 -142.009)" fill="#fff"/>
  <path id="パス_622" data-name="パス 622" d="M282.266,7.427A26.328,26.328,0,0,0,267.715.012l-.356,2.265a24.139,24.139,0,0,1,20.056,20.057l2.267-.358A26.334,26.334,0,0,0,282.266,7.427Z" transform="translate(-242.963 -0.012)" fill="#fff"/>
  <path id="パス_623" data-name="パス 623" d="M255.367,78.054l-.356,2.267A16.9,16.9,0,0,1,269.07,94.381l2.266-.357a19.19,19.19,0,0,0-15.969-15.969Z" transform="translate(-231.742 -70.933)" fill="#fff"/>
</svg>
