<!--?xml version="1.0" encoding="utf-8"?-->
<!-- Generator: Adobe Illustrator 18.1.1, SVG Export Plug-In . SVG Version: 6.00 Build 0)  -->

<svg version="1.1" id="_x31_0" xmlns="http://www.w3.org/2000/svg" xmlns:xlink="http://www.w3.org/1999/xlink" x="0px" y="0px" viewBox="0 0 512 512" style="width: 64px; height: 64px; opacity: 1;" xml:space="preserve">
<style type="text/css">
	.st0{fill:#374149;}
</style>
<g>
	<path class="st0" d="M504.065,359.408c-10.629-14.82-19.633-27.262-25.976-35.996c-0.821-1.125-1.566-2.153-2.297-3.156
		l-0.454-0.68c0-0.082,0-0.164,0-0.242c0-140.058-98.394-254.007-219.339-254.007c-120.942,0-219.339,113.949-219.339,254.007
		c0,0.098,0,0.199,0.004,0.297c-0.852,1.172-1.77,2.434-2.75,3.782c-6.344,8.734-15.348,21.176-25.981,36
		c-8.683,12.094-10.37,28.121-4.406,41.812c1.438,3.297,3.27,6.375,5.457,9.176c5.785,7.41,13.695,12.527,22.539,14.754
		c17.855,6.367,75.972,21.52,224.476,21.52c148.605,0,206.683-15.164,224.511-21.531c5.086-1.294,9.894-3.551,14.222-6.715
		c6-4.39,10.746-10.332,13.738-17.195C514.44,387.533,512.749,371.51,504.065,359.408z M423.639,234.998h-77.8v23.106v0.07l0,0v0.16
		h84.8c1.582,6.418,2.891,12.965,3.973,19.614c0.031,0.238,0.086,0.465,0.118,0.703h-88.89v23.102v0.074l0,0v0.157h91.53
		c0.383,5.73,0.633,11.504,0.633,17.351c0,4.145-0.117,8.25-0.308,12.328h0.206c0,0,3.668,5.004,9.981,13.695
		c6.313,8.688,15.27,21.066,25.851,35.817c1.141,1.59,1.199,3.566,0.512,5.145c-0.344,0.789-0.875,1.476-1.547,1.968
		c-0.671,0.493-1.488,0.79-2.406,0.79l0,0c-0.016,0.004-44.321,20.266-214.293,20.266c-169.969,0-214.277-20.262-214.289-20.266l0,0
		c-1.379,0-2.527-0.664-3.305-1.66c-0.262-0.332-0.476-0.703-0.652-1.098c-0.684-1.578-0.629-3.555,0.515-5.145
		c10.578-14.75,19.539-27.129,25.852-35.817c6.289-8.66,9.945-13.648,9.973-13.687h0.054v-0.008h0.16
		c-0.191-4.078-0.313-8.183-0.313-12.328c0-5.847,0.25-11.621,0.633-17.351h91.539V278.65h-76.89l-12.023-0.024
		c1.098-6.886,2.473-13.656,4.106-20.293h84.39h0.258l0,0h0.16v-23.336h-58.875l-18.972-0.05
		c27.637-77.738,92.304-132.285,167.679-132.285c69.05,0,129.027,45.847,159.87,113.297
		C418.667,222.131,421.319,228.431,423.639,234.998z" style="fill: rgb(75, 75, 75);"></path>
	<polygon class="st0" points="275.835,216.232 236.449,216.232 236.327,216.232 236.327,216.232 236.167,216.232 236.167,254.15 
		198.25,254.15 198.25,293.818 236.167,293.818 236.167,331.458 236.167,331.576 236.167,331.576 236.167,331.736 275.835,331.736 
		275.835,293.818 313.753,293.818 313.753,254.15 275.835,254.15 	" style="fill: rgb(75, 75, 75);"></polygon>
</g>
</svg>
