<svg xmlns="http://www.w3.org/2000/svg" width="31.384" height="23.597" viewBox="0 0 31.384 23.597">
  <g id="メールの無料アイコン素材" transform="translate(0 -63.519)">
    <path id="パス_3" data-name="パス 3" d="M449.97,177.3l-4.05-4.207,4.05-3.491Z" transform="translate(-418.587 -99.579)" fill="#fff"/>
    <path id="パス_4" data-name="パス 4" d="M4.055,173.091,0,177.3v-7.7Z" transform="translate(0 -99.579)" fill="#fff"/>
    <path id="パス_5" data-name="パス 5" d="M31.384,261.175v3.874a1.7,1.7,0,0,1-1.7,1.7H1.7a1.7,1.7,0,0,1-1.7-1.7v-3.874l6.066-6.3,6.929,5.968a4.271,4.271,0,0,0,5.4,0l6.924-5.968Z" transform="translate(0 -179.63)" fill="#fff"/>
    <path id="パス_6" data-name="パス 6" d="M31.384,65.211v1.7l-14.8,12.75a1.444,1.444,0,0,1-1.785,0L0,66.907v-1.7a1.693,1.693,0,0,1,1.7-1.692h27.99A1.693,1.693,0,0,1,31.384,65.211Z" transform="translate(0 0)" fill="#fff"/>
  </g>
</svg>
