<svg xmlns="http://www.w3.org/2000/svg" width="31.717" height="35.016" viewBox="0 0 31.717 35.016">
  <g id="ルーズリーフのノートアイコン" transform="translate(-24.122)">
    <path id="パス_616" data-name="パス 616" d="M54.53,1.309A4.463,4.463,0,0,0,51.369,0H30.313a4.471,4.471,0,0,0-4.47,4.471v.36H24.86a.738.738,0,0,0,0,1.476h.983v4.429H24.86a.738.738,0,0,0,0,1.476h.983v4.429H24.86a.738.738,0,1,0,0,1.475h.983v4.429H24.86a.738.738,0,0,0,0,1.476h.983V28.45H24.86a.738.738,0,0,0,0,1.476h.983v.62a4.471,4.471,0,0,0,4.47,4.47H51.369a4.47,4.47,0,0,0,4.47-4.47V4.471A4.461,4.461,0,0,0,54.53,1.309ZM33.622,33.049H30.313a2.5,2.5,0,0,1-2.5-2.5v-.62h1.561a1.474,1.474,0,1,0-.019-1.476H27.81V24.021h1.559a1.475,1.475,0,1,0-.014-1.476H27.81V18.116h1.556a1.475,1.475,0,1,0-.009-1.475H27.81V12.212h1.554a1.475,1.475,0,1,0,0-1.476H27.81V6.307h1.551a1.475,1.475,0,1,0,0-1.476H27.81v-.36a2.5,2.5,0,0,1,2.5-2.5h3.309V33.049Zm20.25-2.5a2.5,2.5,0,0,1-2.5,2.5H34.36V1.967H51.369a2.5,2.5,0,0,1,2.5,2.5V30.546Z" transform="translate(0)" fill="#FFE500"/>
    <rect id="長方形_48" data-name="長方形 48" width="13.058" height="0.738" transform="translate(37.372 7.735)" fill="#FFE500"/>
    <rect id="長方形_49" data-name="長方形 49" width="13.058" height="0.738" transform="translate(37.372 12.469)" fill="#FFE500"/>
    <rect id="長方形_50" data-name="長方形 50" width="13.058" height="0.738" transform="translate(37.372 17.202)" fill="#FFE500"/>
    <rect id="長方形_51" data-name="長方形 51" width="13.058" height="0.738" transform="translate(37.372 21.935)" fill="#FFE500"/>
    <rect id="長方形_52" data-name="長方形 52" width="13.058" height="0.737" transform="translate(37.372 26.668)" fill="#FFE500"/>
  </g>
</svg>
