<svg xmlns="http://www.w3.org/2000/svg" width="24.79" height="24.788" viewBox="0 0 24.79 24.788">
  <g id="電話発信中のフリーアイコン" transform="translate(0.001 -0.012)">
    <path id="パス_620" data-name="パス 620" d="M15.309,141.875a.8.8,0,0,0-1.07-.057l-1.508,1.216a.8.8,0,0,1-1.02-.011,21.035,21.035,0,0,1-4.983-4.983.8.8,0,0,1-.011-1.019l1.215-1.508a.8.8,0,0,0-.057-1.07l-2.887-2.887a.8.8,0,0,0-1.083-.047L.285,134.549a.8.8,0,0,0-.191.992s.486.994.939,1.754a35.91,35.91,0,0,0,11.421,11.421c.761.452,1.754.939,1.754.939a.8.8,0,0,0,.992-.192l3.041-3.621a.8.8,0,0,0-.047-1.083Z" transform="translate(0 -124.951)" fill="#E6B422"/>
    <path id="パス_621" data-name="パス 621" d="M246.911,161.742l1.2-.191a6.374,6.374,0,0,0-5.284-5.285l-.191,1.2a5.159,5.159,0,0,1,4.274,4.274Z" transform="translate(-230.89 -148.69)" fill="#E6B422"/>
    <path id="パス_622" data-name="パス 622" d="M275.269,3.946A13.97,13.97,0,0,0,267.548.012l-.189,1.2A12.809,12.809,0,0,1,278,11.856l1.2-.19A13.973,13.973,0,0,0,275.269,3.946Z" transform="translate(-254.415 0)" fill="#E6B422"/>
    <path id="パス_623" data-name="パス 623" d="M255.2,78.054l-.189,1.2a8.965,8.965,0,0,1,7.46,7.46l1.2-.19a10.183,10.183,0,0,0-8.474-8.474Z" transform="translate(-242.665 -74.263)" fill="#E6B422"/>
  </g>
</svg>
